<svg class="nc-icon glyph" xmlns="http://www.w3.org/2000/svg" xmlns:xlink="http://www.w3.org/1999/xlink" x="0px" y="0px" width="64px" height="64px" viewBox="0 0 64 64"><g>
<path fill-rule="evenodd" clip-rule="evenodd" fill="#d6d6d6" d="M32,64C14.4,64,0,49.6,0,32S14.4,0,32,0s32,14.4,32,32
	S49.6,64,32,64z M59,36.4c-0.9-0.3-8.5-2.5-17-1.2c3.6,9.8,5,17.8,5.3,19.5C53.4,50.6,57.8,44,59,36.4z M42.7,57.2
	c-0.4-2.4-2-10.8-5.8-20.7c-0.1,0-0.1,0-0.2,0.1c-15.4,5.4-21,16.1-21.4,17.1c4.6,3.6,10.5,5.8,16.8,5.8
	C35.8,59.4,39.4,58.6,42.7,57.2z M11.7,50.3c0.6-1.1,8.1-13.5,22.2-18c0.4-0.1,0.7-0.2,1.1-0.3c-0.7-1.6-1.4-3.1-2.2-4.6
	c-13.6,4.1-26.9,3.9-28.1,3.9c0,0.3,0,0.6,0,0.8C4.7,39.1,7.3,45.5,11.7,50.3z M5.2,26.4c1.2,0,12.5,0.1,25.3-3.3
	C26,15.1,21.1,8.3,20.4,7.3C12.7,10.9,7,18,5.2,26.4z M25.6,5.5c0.8,1,5.7,7.8,10.2,16c9.7-3.6,13.8-9.2,14.3-9.9
	C45.3,7.3,38.9,4.7,32,4.7C29.8,4.7,27.7,5,25.6,5.5z M53.2,14.8c-0.6,0.8-5.2,6.7-15.3,10.8c0.6,1.3,1.2,2.6,1.8,4
	c0.2,0.5,0.4,0.9,0.6,1.4c9.1-1.1,18.1,0.7,19,0.9C59.3,25.3,57,19.4,53.2,14.8z"></path>
</g></svg>