<?xml version="1.0" encoding="utf-8"?>
<!-- Generator: Adobe Illustrator 15.0.0, SVG Export Plug-In . SVG Version: 6.00 Build 0)  -->
<!DOCTYPE svg PUBLIC "-//W3C//DTD SVG 1.1//EN" "http://www.w3.org/Graphics/SVG/1.1/DTD/svg11.dtd">
<svg version="1.1" id="Layer_1" xmlns="http://www.w3.org/2000/svg" xmlns:xlink="http://www.w3.org/1999/xlink" x="0px" y="0px"
	 width="64px" height="64px" viewBox="0 0 64 64" enable-background="new 0 0 64 64" xml:space="preserve">
<g>
	<path fill="#D6D6D6" d="M23.406,55.32c-5.045,0-10.09,0-15.135,0c0-5.045,0-10.091,0-15.136s-7.716-5.045-7.716,0
		c0,6.231,0,12.376,0,18.696c0,1.188,0.534,2.255,1.217,2.878c0.623,0.684,1.603,1.276,2.79,1.276c6.321,0,12.612,0,18.844,0
		C28.451,63.035,28.451,55.32,23.406,55.32z"/>
	<path fill="#D6D6D6" d="M55.457,40.185c0,5.045,0,10.091,0,15.136c-5.046,0-10.091,0-15.136,0c-4.748,0-4.748,7.715,0,7.715
		c6.528,0,12.82,0,19.141,0c1.188,0,2.018-0.593,2.642-1.276c0.683-0.623,1.068-1.661,1.068-2.878c0-6.32,0-12.465,0-18.696
		C63.172,35.14,55.457,35.14,55.457,40.185z"/>
	<path fill="#D6D6D6" d="M23.406,0.419c-6.232,0-12.523,0-18.844,0c-1.187,0-2.167,0.296-2.79,0.979
		C1.09,2.022,0.556,2.793,0.556,3.98c0,6.321,0,12.761,0,19.29c0,4.748,7.716,4.748,7.716,0c0-5.045,0-10.089,0-15.135
		c5.045,0,10.09,0,15.135,0C28.451,8.135,28.451,0.419,23.406,0.419z"/>
	<path fill="#D6D6D6" d="M62.104,1.398c-0.624-0.683-1.454-0.979-2.642-0.979c-6.32,0-12.612,0-19.141,0
		c-4.748,0-4.748,7.715,0,7.715c5.045,0,10.09,0,15.136,0c0,5.045,0,10.09,0,15.135c0,4.748,7.715,4.748,7.715,0
		c0-6.528,0-12.968,0-19.29C63.172,2.793,62.786,2.022,62.104,1.398z"/>
</g>
</svg>
