<?xml version="1.0" encoding="utf-8"?>
<!-- Generator: Adobe Illustrator 15.0.0, SVG Export Plug-In . SVG Version: 6.00 Build 0)  -->
<!DOCTYPE svg PUBLIC "-//W3C//DTD SVG 1.1//EN" "http://www.w3.org/Graphics/SVG/1.1/DTD/svg11.dtd">
<svg version="1.1" id="Layer_1" xmlns="http://www.w3.org/2000/svg" xmlns:xlink="http://www.w3.org/1999/xlink" x="0px" y="0px"
	 width="64px" height="64px" viewBox="0 0 64 64" enable-background="new 0 0 64 64" xml:space="preserve">
<path fill="#A6A8AB" d="M45.033,2.074"/>
<g>
	<path fill="#D0D2D3" d="M61.091,18.857c0.019-1.056-0.478-1.224-1.104-0.374L40.538,44.906c-0.626,0.85-0.352,1.903,0.61,2.341
		l17.541,7.983c0.962,0.438,1.764-0.069,1.782-1.125L61.091,18.857z"/>
</g>
<g>
	<path fill="#A6A8AB" d="M29.694,30.337c-0.58,0.882-0.515,2.279,0.146,3.103l9.224,11.521c0.66,0.824,1.652,1.714,2.204,1.977
		s1.337,0.792,1.743,1.176s1.17-0.051,1.696-0.966l16.244-28.231c0.526-0.915,0.196-2.075-0.732-2.576l-14.05-7.583
		c-0.929-0.502-2.164-0.19-2.744,0.692L29.694,30.337z"/>
</g>
<polyline fill="#808184" points="21.889,16.168 43.404,48.274 22.272,37.57 "/>
<g>
	<path fill="#58595B" d="M21.211,15.762c0.95,0.461,1.727,1.703,1.727,2.759v35.584c0,1.056-0.775,1.538-1.722,1.071L6.228,47.786
		c-0.947-0.467-1.722-1.713-1.722-2.769V9.562c0-1.056,0.777-1.542,1.727-1.081L21.211,15.762z"/>
</g>
</svg>
