<svg class="nc-icon glyph" xmlns="http://www.w3.org/2000/svg" xmlns:xlink="http://www.w3.org/1999/xlink" x="0px" y="0px" width="64px" height="64px" viewBox="0 0 64 64"><g>
<path fill="#d6d6d6" d="M63.4,19.2c0,0-0.6-4.4-2.5-6.4c-2.4-2.5-5.2-2.6-6.4-2.7C45.4,9.5,32,9.5,32,9.5h0c0,0-13.4,0-22.4,0.6
	c-1.3,0.1-4,0.2-6.4,2.7c-1.9,1.9-2.5,6.4-2.5,6.4S0,24.4,0,29.6v4.9c0,5.2,0.6,10.4,0.6,10.4s0.6,4.4,2.5,6.4
	c2.4,2.5,5.6,2.5,7.1,2.7c5.1,0.5,21.8,0.6,21.8,0.6s13.4,0,22.4-0.7c1.3-0.1,4-0.2,6.4-2.7c1.9-1.9,2.5-6.4,2.5-6.4
	S64,39.6,64,34.4v-4.9C64,24.4,63.4,19.2,63.4,19.2z M25.4,40.3l0-18l17.3,9L25.4,40.3z"></path>
</g></svg>